<svg width="35" height="35" viewBox="0 0 24 24" fill="none" xmlns="http://www.w3.org/2000/svg">
<path fill-rule="evenodd" clip-rule="evenodd" d="M20.5964 17.3904C22.3971 17.4157 23.8976 16.0071 23.9986 14.1965C24.0247 13.302 23.6886 12.4354 23.0675 11.7954C22.4465 11.1554 21.5938 10.7971 20.7052 10.8027C20.412 10.8014 20.12 10.8416 19.8379 10.922C19.518 9.42337 18.5894 8.12823 17.2774 7.35096C16.446 6.85202 15.496 6.58917 14.5281 6.59034C12.9439 6.59034 12.1917 7.11568 12.1917 7.11568C11.9076 7.23931 11.7283 7.52619 11.7405 7.83762V16.7039C11.7422 17.0811 12.0445 17.3869 12.419 17.3904H20.5964ZM10.7195 17.1455C11.1452 14.1481 10.9659 11.4054 10.7195 8.39841C10.7307 8.29643 10.6829 8.197 10.5966 8.14248C10.5103 8.08796 10.4006 8.08796 10.3143 8.14248C10.228 8.197 10.1802 8.29643 10.1914 8.39841C9.96736 11.3796 9.79453 14.1739 10.1914 17.1455C10.2062 17.281 10.32 17.3837 10.4554 17.3837C10.5909 17.3837 10.7046 17.281 10.7195 17.1455ZM9.06479 17.1487C9.044 17.2856 8.92707 17.3867 8.78955 17.3867C8.65202 17.3867 8.53509 17.2856 8.5143 17.1487C8.21825 14.5843 8.21825 11.9941 8.5143 9.42973C8.52953 9.28731 8.6489 9.17935 8.79115 9.17935C8.93339 9.17935 9.05277 9.28731 9.068 9.42973C9.3966 11.9921 9.39552 14.5865 9.06479 17.1487ZM7.4037 17.1422C7.79737 14.393 7.67575 11.9242 7.4069 9.16863C7.39196 9.03135 7.2768 8.9274 7.13965 8.9274C7.00251 8.9274 6.88735 9.03135 6.87241 9.16863C6.61956 11.8888 6.49154 14.4285 6.87241 17.1422C6.87241 17.2899 6.99134 17.4097 7.13805 17.4097C7.28477 17.4097 7.4037 17.2899 7.4037 17.1422ZM5.74581 17.1514C5.73078 17.2904 5.61421 17.3957 5.47537 17.3957C5.33652 17.3957 5.21996 17.2904 5.20492 17.1514C4.89926 14.7591 4.89926 12.3373 5.20492 9.94496C5.20492 9.79188 5.32815 9.66779 5.48017 9.66779C5.63218 9.66779 5.75542 9.79188 5.75542 9.94496C6.08029 12.3362 6.07706 14.7611 5.74581 17.1514ZM4.07193 17.1712C4.31838 15.2664 4.50721 13.6163 4.08793 11.747C4.08793 11.5957 3.96614 11.473 3.81589 11.473C3.66564 11.473 3.54384 11.5957 3.54384 11.747C3.15017 13.6034 3.3358 15.2922 3.55984 17.1712C3.57982 17.298 3.68839 17.3913 3.81589 17.3913C3.94339 17.3913 4.05196 17.298 4.07193 17.1712ZM2.43325 11.4634C2.81732 13.3778 2.69249 14.999 2.42365 16.9199C2.39164 17.2035 1.90836 17.2067 1.88275 16.9199C1.63951 15.028 1.52429 13.3585 1.87315 11.4634C1.88847 11.3193 2.00925 11.21 2.1532 11.21C2.29715 11.21 2.41793 11.3193 2.43325 11.4634ZM0.746549 15.9948C1.0282 14.6928 1.16582 13.6614 0.762552 12.3916C0.747229 12.2475 0.626449 12.1382 0.482503 12.1382C0.338558 12.1382 0.217778 12.2475 0.202455 12.3916C-0.117601 13.6646 -0.0183835 14.7185 0.224859 15.9948C0.239606 16.1287 0.351958 16.23 0.485704 16.23C0.61945 16.23 0.731802 16.1287 0.746549 15.9948Z" fill="white"/>
</svg>
